<?xml version="1.0" encoding="UTF-8" standalone="no"?>
<svg
   xmlns="http://www.w3.org/2000/svg"
   viewBox="0 0 210 297">
  <g>
    <ellipse
       id="flower-circle-1"
       ry="40.357697"
       rx="72.162773"
       cy="92.004272"
       cx="105.30419"/>
    <ellipse
       id="flower-circle-2"
       cx="105.30419"
       cy="92.004272"
       rx="54.113506"
       ry="30.263477" />
    <ellipse
       id="flower-circle-3"
       ry="20.466146"
       rx="36.5951"
       cy="92.004272"
       cx="105.30419" />
    <ellipse
       id="flower-eye-1"
       ry="13.138725"
       rx="3.249753"
       cy="92.004272"
       cx="90.337097"/>
    <ellipse
       id="flower-eye-2"
       cx="118.66766"
       cy="92.004272"
       rx="3.249753"
       ry="13.138725" />
    <rect
       id="flower-stem"
       ry="4.849021"
       y="132.18387"
       x="98.177078"
       height="58.620972"
       width="14.25423" />
    <path
       id="flower-leaf-1"
       d="m 168.98626,154.96026 c 1.64475,6.50192 -6.85896,18.30743 -22.53606,21.04176 -14.90187,2.59913 -29.21022,1.07299 -31.42833,0.0272 -5.82112,-2.74458 2.58781,-24.24378 20.79235,-29.31809 15.62665,-4.35576 32.28313,4.73518 33.17204,8.24916 z"/>
    <path
       id="flower-leaf-2"
       d="m 41.238121,154.96026 c -1.64475,6.50192 6.85896,18.30743 22.53606,21.04176 14.90187,2.59913 29.21022,1.07299 31.42833,0.0272 5.821119,-2.74458 -2.58781,-24.24378 -20.79235,-29.31809 -15.62665,-4.35576 -32.28313,4.73518 -33.17204,8.24916 z" />
    <path
       id="flower-leaf-vein-1"
       d="m 41.238119,154.96029 53.909833,19.63026"
       style="fill:none;stroke:#000000" />
    <path
       id="flower-leaf-vein-2" 
       style="fill:none;stroke:#000000"
       d="m 168.98626,154.96029 -53.90984,19.63026"/>
  </g>
</svg>
