<svg xmlns="http://www.w3.org/2000/svg">
    <symbol id="star" viewBox="0 0 250 250">
        <title>Super Star</title>
        <g>
            <path
                id="star-body"
                d="M 137.37654,162.8307 88.157486,139.52544 39.479195,163.94007 46.434293,109.92825 8.1721773,71.176982 61.689715,61.101103 86.720718,12.736868 112.84128,60.521453 166.5734,69.381981 129.19926,108.99036 Z"/>
            <ellipse
                id="eye1"
                ry="12.050133"
                rx="4.4881687"
                cy="88.224174"
                cx="75.370003"/>
            <ellipse
                id="eye2"
                cx="100.49334"
                cy="88.224174"
                rx="4.4881687"
                ry="12.050133" />
        </g>
    </symbol>

    <symbol id="mushroom" viewBox="0 0 250 250">
        <title>Super Mushroom</title>
        <g>
            <path
                id="mushroom-body"
                d="m 67.761788,141.66349 c 0.167454,-12.24277 13.175319,-8.47267 30.982298,-9.34207 17.816604,0.64265 30.775424,-3.29274 31.098714,8.94691 1.08901,7.66988 0.2167,13.83401 -2.08227,19.68032 l -28.831887,0.36706 -2e-6,-1.6e-4 v 1.6e-4 H 70.094415 c -2.373204,-5.81657 -3.323912,-11.9691 -2.332627,-19.65222 z"/>
            <ellipse
                id="eye-1"
                ry="7.1815472"
                rx="2.4568453"
                cy="141.4687"
                cx="90.903267"/>
            <ellipse
                id="eye-2"
                cx="106.4003"
                cy="141.4687"
                rx="2.4568453"
                ry="7.1815472" />
            <path
                id="mushroom-top"
                d="m 46.576184,101.31301 c 3.255904,-19.653806 31.020457,-27.107505 52.167902,-28.672546 21.147444,1.565041 48.911994,9.01874 52.167904,28.672546 -0.0887,14.36853 1.81945,20.80214 -8.31548,32.14234 -11.44053,17.28832 -22.2933,-2.55175 -43.852424,-1.13393 -21.559125,-1.41782 -32.411894,18.42225 -43.852425,1.13393 -10.134927,-11.3402 -8.226764,-17.77381 -8.315477,-32.14234 z"/>
            <circle
                id="circle-1"
                r="24.568451"
                cy="102.72024"
                cx="98.840775"/>
            <path
                id="circle-2"
                d="m 46.576234,101.31302 c 6.202304,-0.98396 12.545829,3.44123 13.927911,11.22781 1.382079,7.78658 -2.080212,15.64394 -8.008135,18.17373 -3.765708,-4.08221 -5.765113,-9.19512 -5.932728,-14.3597 -0.794509,-4.64603 0.04873,-15.51206 0.01295,-15.04184 z"/>
            <path
                id="circle-3"
                d="m 150.91204,101.31301 c -6.2023,-0.98396 -12.54583,3.44124 -13.92791,11.22783 -1.38208,7.78658 2.08021,15.64394 8.00813,18.17373 3.76571,-4.08221 5.76512,-9.19512 5.93273,-14.3597 0.79451,-4.64603 -0.0487,-15.51208 -0.013,-15.04186 z" />
        </g>
    </symbol>

    <symbol id="block" viewBox="0 0 250 250">
        <title>Question Block</title>
        <g>
            <rect
                id="block"
                ry="22.678572"
                y="59.603588"
                x="52.889297"
                height="98.9095"
                width="105.88805"/>
            <text
                id="question-mark"
                transform="scale(1.3059567,0.76572215)"
                y="193.45387"
                x="44.977104"
                style="font-style:normal;font-variant:normal;font-weight:normal;font-stretch:normal;font-size:129.0224762px;line-height:1.25;font-family:'Hiragino Kaku Gothic Pro';-inkscape-font-specification:'Hiragino Kaku Gothic Pro';letter-spacing:0px;word-spacing:0px"
                xml:space="preserve"><tspan
                    style="stroke-width:1"
                    id="tspan882"
                    y="193.45387"
                    x="44.977104"><tspan
                    style="stroke-width:1"
                    id="tspan880"
                    y="193.45387"
                    x="44.977104">?</tspan></tspan></text>
        </g>
    </symbol>

    <symbol id="coin" viewBox="0 0 250 250">
        <title>Coin</title>
        <g>
            <ellipse
                id="outer-coin"
                ry="54.985363"
                rx="40.443455"
                cy="149.58928"
                cx="103.1875"/>
            <ellipse
                id="inner-coin"
                cx="103.1875"
                cy="149.58928"
                rx="15.843088"
                ry="33.509315" />
        </g>
    </symbol>

    <symbol id="flower" viewBox="0 0 250 250">
        <title>Fire Flower</title>
        <g>
            <ellipse
                id="flower-circle-1"
                ry="40.357697"
                rx="72.162773"
                cy="92.004272"
                cx="105.30419"/>
            <ellipse
                id="flower-circle-2"
                cx="105.30419"
                cy="92.004272"
                rx="54.113506"
                ry="30.263477" />
            <ellipse
                id="flower-circle-3"
                ry="20.466146"
                rx="36.5951"
                cy="92.004272"
                cx="105.30419" />
            <ellipse
                id="flower-eye-1"
                ry="13.138725"
                rx="3.249753"
                cy="92.004272"
                cx="90.337097" />
            <ellipse
                id="flower-eye-2"
                cx="118.66766"
                cy="92.004272"
                rx="3.249753"
                ry="13.138725" />
            <rect
                id="flower-stem"
                ry="4.849021"
                y="132.18387"
                x="98.177078"
                height="58.620972"
                width="14.25423"/>
            <path
                id="flower-leaf-1"
                d="m 168.98626,154.96026 c 1.64475,6.50192 -6.85896,18.30743 -22.53606,21.04176 -14.90187,2.59913 -29.21022,1.07299 -31.42833,0.0272 -5.82112,-2.74458 2.58781,-24.24378 20.79235,-29.31809 15.62665,-4.35576 32.28313,4.73518 33.17204,8.24916 z"/>
            <path
                id="flower-leaf-2"
                d="m 41.238121,154.96026 c -1.64475,6.50192 6.85896,18.30743 22.53606,21.04176 14.90187,2.59913 29.21022,1.07299 31.42833,0.0272 5.821119,-2.74458 -2.58781,-24.24378 -20.79235,-29.31809 -15.62665,-4.35576 -32.28313,4.73518 -33.17204,8.24916 z" />
            <path
                id="flower-leaf-vein-1"
                d="m 41.238119,154.96029 53.909833,19.63026"
                style="fill:none;stroke:#000000" />
            <path
                id="flower-leaf-vein-2" 
                style="fill:none;stroke:#000000"
                d="m 168.98626,154.96029 -53.90984,19.63026"/>
        </g>
     </symbol>
</svg>
