<?xml version="1.0" encoding="UTF-8" standalone="no"?>
<svg
   xmlns="http://www.w3.org/2000/svg"
   viewBox="0 0 200 200">
  <g>
    <path
       id="mushroom-body"
       d="m 67.761788,141.66349 c 0.167454,-12.24277 13.175319,-8.47267 30.982298,-9.34207 17.816604,0.64265 30.775424,-3.29274 31.098714,8.94691 1.08901,7.66988 0.2167,13.83401 -2.08227,19.68032 l -28.831887,0.36706 -2e-6,-1.6e-4 v 1.6e-4 H 70.094415 c -2.373204,-5.81657 -3.323912,-11.9691 -2.332627,-19.65222 z" />
    <ellipse
       id="eye-1"
       ry="7.1815472"
       rx="2.4568453"
       cy="141.4687"
       cx="90.903267" />
    <ellipse
       id="eye-2"
       cx="106.4003"
       cy="141.4687"
       rx="2.4568453"
       ry="7.1815472" />
    <path
       id="mushroom-top"
       d="m 46.576184,101.31301 c 3.255904,-19.653806 31.020457,-27.107505 52.167902,-28.672546 21.147444,1.565041 48.911994,9.01874 52.167904,28.672546 -0.0887,14.36853 1.81945,20.80214 -8.31548,32.14234 -11.44053,17.28832 -22.2933,-2.55175 -43.852424,-1.13393 -21.559125,-1.41782 -32.411894,18.42225 -43.852425,1.13393 -10.134927,-11.3402 -8.226764,-17.77381 -8.315477,-32.14234 z" />
    <circle
       id="circle-1"
       r="24.568451"
       cy="102.72024"
       cx="98.840775" />
    <path
       id="circle-2"
       d="m 46.576234,101.31302 c 6.202304,-0.98396 12.545829,3.44123 13.927911,11.22781 1.382079,7.78658 -2.080212,15.64394 -8.008135,18.17373 -3.765708,-4.08221 -5.765113,-9.19512 -5.932728,-14.3597 -0.794509,-4.64603 0.04873,-15.51206 0.01295,-15.04184 z" />
    <path
       id="circle-3"
       d="m 150.91204,101.31301 c -6.2023,-0.98396 -12.54583,3.44124 -13.92791,11.22783 -1.38208,7.78658 2.08021,15.64394 8.00813,18.17373 3.76571,-4.08221 5.76512,-9.19512 5.93273,-14.3597 0.79451,-4.64603 -0.0487,-15.51208 -0.013,-15.04186 z" />
  </g>
</svg>
